<?xml version="1.0" encoding="UTF-8" standalone="no"?>
<!DOCTYPE svg PUBLIC "-//W3C//DTD SVG 1.1//EN"
 "http://www.w3.org/Graphics/SVG/1.1/DTD/svg11.dtd">
<!-- Generated by graphviz version 2.36.0 (20140111.2315)
 -->
<!-- Title: %3 Pages: 1 -->
<svg width="207pt" height="444pt"
 viewBox="0.00 0.00 207.00 444.00" xmlns="http://www.w3.org/2000/svg" xmlns:xlink="http://www.w3.org/1999/xlink">
<g id="graph0" class="graph" transform="scale(1 1) rotate(0) translate(4 440)">
<title>%3</title>
<polygon fill="white" stroke="none" points="-4,4 -4,-440 203,-440 203,4 -4,4"/>
<!-- adaptOut -->
<g id="node1" class="node"><title>adaptOut</title>
<ellipse fill="none" stroke="black" cx="45" cy="-398" rx="44.8843" ry="37.4533"/>
<text text-anchor="middle" x="45" y="-409.3" font-family="Times,serif" font-size="14.00">Optional</text>
<text text-anchor="middle" x="45" y="-394.3" font-family="Times,serif" font-size="14.00">Output</text>
<text text-anchor="middle" x="45" y="-379.3" font-family="Times,serif" font-size="14.00">Adapter</text>
</g>
<!-- Validate -->
<g id="node4" class="node"><title>Validate</title>
<ellipse fill="none" stroke="black" cx="49" cy="-306" rx="39.9464" ry="18"/>
<text text-anchor="middle" x="49" y="-302.3" font-family="Times,serif" font-size="14.00">Validate</text>
</g>
<!-- adaptOut&#45;&gt;Validate -->
<g id="edge2" class="edge"><title>adaptOut&#45;&gt;Validate</title>
<path fill="none" stroke="red" d="M46.627,-360.394C47.012,-351.731 47.4161,-342.638 47.7795,-334.461"/>
<polygon fill="red" stroke="red" points="51.2812,-334.498 48.2288,-324.353 44.2881,-334.188 51.2812,-334.498"/>
</g>
<!-- adaptIn -->
<g id="node2" class="node"><title>adaptIn</title>
<ellipse fill="none" stroke="black" cx="154" cy="-398" rx="44.8843" ry="37.4533"/>
<text text-anchor="middle" x="154" y="-409.3" font-family="Times,serif" font-size="14.00">Optional</text>
<text text-anchor="middle" x="154" y="-394.3" font-family="Times,serif" font-size="14.00">Input</text>
<text text-anchor="middle" x="154" y="-379.3" font-family="Times,serif" font-size="14.00">Adapter</text>
</g>
<!-- Tested -->
<g id="node3" class="node"><title>Tested</title>
<ellipse fill="none" stroke="black" cx="150" cy="-306" rx="34.1708" ry="18"/>
<text text-anchor="middle" x="150" y="-302.3" font-family="Times,serif" font-size="14.00">Tested</text>
</g>
<!-- adaptIn&#45;&gt;Tested -->
<g id="edge3" class="edge"><title>adaptIn&#45;&gt;Tested</title>
<path fill="none" stroke="blue" d="M152.373,-360.394C151.988,-351.731 151.584,-342.638 151.221,-334.461"/>
<polygon fill="blue" stroke="blue" points="154.712,-334.188 150.771,-324.353 147.719,-334.498 154.712,-334.188"/>
</g>
<!-- Tested&#45;&gt;adaptOut -->
<g id="edge1" class="edge"><title>Tested&#45;&gt;adaptOut</title>
<path fill="none" stroke="red" d="M132.669,-321.855C119.449,-333.186 100.723,-349.238 83.9689,-363.598"/>
<polygon fill="red" stroke="red" points="81.2504,-361.318 75.9356,-370.484 85.8059,-366.633 81.2504,-361.318"/>
</g>
<!-- Validate&#45;&gt;adaptIn -->
<g id="edge4" class="edge"><title>Validate&#45;&gt;adaptIn</title>
<path fill="none" stroke="blue" d="M66.9383,-322.376C80.1484,-333.699 98.6122,-349.525 115.139,-363.69"/>
<polygon fill="blue" stroke="blue" points="113.194,-366.633 123.064,-370.484 117.75,-361.318 113.194,-366.633"/>
</g>
<!-- Generate -->
<g id="node5" class="node"><title>Generate</title>
<ellipse fill="none" stroke="black" cx="119" cy="-234" rx="42.3701" ry="18"/>
<text text-anchor="middle" x="119" y="-230.3" font-family="Times,serif" font-size="14.00">Generate</text>
</g>
<!-- Validate&#45;&gt;Generate -->
<g id="edge5" class="edge"><title>Validate&#45;&gt;Generate</title>
<path fill="none" stroke="red" d="M64.8841,-289.116C74.1025,-279.897 85.8731,-268.127 96.0809,-257.919"/>
<polygon fill="red" stroke="red" points="98.5826,-260.367 103.179,-250.821 93.6328,-255.417 98.5826,-260.367"/>
</g>
<!-- Reduce -->
<g id="node7" class="node"><title>Reduce</title>
<ellipse fill="none" stroke="black" cx="38" cy="-90" rx="37.0701" ry="18"/>
<text text-anchor="middle" x="38" y="-86.3" font-family="Times,serif" font-size="14.00">Reduce</text>
</g>
<!-- Validate&#45;&gt;Reduce -->
<g id="edge9" class="edge"><title>Validate&#45;&gt;Reduce</title>
<path fill="none" stroke="black" d="M44.7448,-287.655C38.0149,-258.199 26.0612,-196.484 30,-144 30.6366,-135.518 31.8384,-126.336 33.1208,-118.036"/>
<polygon fill="black" stroke="black" points="36.5836,-118.547 34.7517,-108.112 29.6763,-117.412 36.5836,-118.547"/>
</g>
<!-- Split -->
<g id="node6" class="node"><title>Split</title>
<ellipse fill="none" stroke="black" cx="66" cy="-162" rx="26.949" ry="18"/>
<text text-anchor="middle" x="66" y="-158.3" font-family="Times,serif" font-size="14.00">Split</text>
</g>
<!-- Generate&#45;&gt;Split -->
<g id="edge6" class="edge"><title>Generate&#45;&gt;Split</title>
<path fill="none" stroke="blue" d="M106.708,-216.765C99.9905,-207.893 91.5445,-196.738 84.0893,-186.892"/>
<polygon fill="blue" stroke="blue" points="86.6881,-184.526 77.8612,-178.666 81.1072,-188.751 86.6881,-184.526"/>
</g>
<!-- Split&#45;&gt;Validate -->
<g id="edge7" class="edge"><title>Split&#45;&gt;Validate</title>
<path fill="none" stroke="blue" d="M63.9421,-180.189C61.0407,-204.424 55.7177,-248.888 52.2708,-277.679"/>
<polygon fill="blue" stroke="blue" points="48.7642,-277.526 51.0506,-287.871 55.7146,-278.358 48.7642,-277.526"/>
</g>
<!-- Split&#45;&gt;Reduce -->
<g id="edge8" class="edge"><title>Split&#45;&gt;Reduce</title>
<path fill="none" stroke="blue" d="M59.3644,-144.411C56.1341,-136.335 52.1725,-126.431 48.5419,-117.355"/>
<polygon fill="blue" stroke="blue" points="51.7461,-115.941 44.7825,-107.956 45.2468,-118.541 51.7461,-115.941"/>
</g>
<!-- ReTest -->
<g id="node8" class="node"><title>ReTest</title>
<ellipse fill="none" stroke="black" cx="38" cy="-18" rx="35.6194" ry="18"/>
<text text-anchor="middle" x="38" y="-14.3" font-family="Times,serif" font-size="14.00">ReTest</text>
</g>
<!-- Reduce&#45;&gt;ReTest -->
<g id="edge10" class="edge"><title>Reduce&#45;&gt;ReTest</title>
<path fill="none" stroke="blue" d="M20.9647,-73.811C17.7808,-65.0968 16.9619,-53.9394 18.5081,-43.9685"/>
<polygon fill="blue" stroke="blue" points="21.9303,-44.711 20.9756,-34.1593 15.1418,-43.0034 21.9303,-44.711"/>
</g>
<!-- Reduce&#45;&gt;ReTest -->
<g id="edge12" class="edge"><title>Reduce&#45;&gt;ReTest</title>
<path fill="none" stroke="purple" d="M32.1218,-72.055C31.2915,-64.2306 31.0543,-54.7484 31.4102,-45.9768"/>
<polygon fill="purple" stroke="purple" points="34.9164,-46.0131 32.1384,-35.789 27.9342,-45.514 34.9164,-46.0131"/>
</g>
<!-- Reduce&#45;&gt;ReTest -->
<g id="edge13" class="edge"><title>Reduce&#45;&gt;ReTest</title>
<path fill="none" stroke="purple" d="M43.8782,-72.055C44.7085,-64.2306 44.9457,-54.7484 44.5898,-45.9768"/>
<polygon fill="purple" stroke="purple" points="48.0658,-45.514 43.8616,-35.789 41.0836,-46.0131 48.0658,-45.514"/>
</g>
<!-- Report -->
<g id="node9" class="node"><title>Report</title>
<ellipse fill="none" stroke="black" cx="126" cy="-18" rx="34.1708" ry="18"/>
<text text-anchor="middle" x="126" y="-14.3" font-family="Times,serif" font-size="14.00">Report</text>
</g>
<!-- Reduce&#45;&gt;Report -->
<g id="edge11" class="edge"><title>Reduce&#45;&gt;Report</title>
<path fill="none" stroke="black" d="M56.6625,-74.1548C69.1968,-64.1844 85.8924,-50.9038 99.7598,-39.8729"/>
<polygon fill="black" stroke="black" points="102.319,-42.3094 107.966,-33.345 97.9614,-36.8312 102.319,-42.3094"/>
</g>
<!-- ReTest&#45;&gt;Reduce -->
<g id="edge14" class="edge"><title>ReTest&#45;&gt;Reduce</title>
<path fill="none" stroke="green" d="M55.0244,-34.1593C58.2137,-42.868 59.0379,-54.024 57.4971,-63.9976"/>
<polygon fill="green" stroke="green" points="54.0738,-63.2599 55.0353,-73.811 60.8634,-64.9633 54.0738,-63.2599"/>
</g>
</g>
</svg>
